<?xml version="1.0" encoding="UTF-8"?>
<svg xmlns="http://www.w3.org/2000/svg" viewBox="0 0 1056 677.52">
  <defs>
    <style>
      .cls-1 {
        font-family: MVBoli, 'MV Boli';
        font-size: 25.87px;
      }

      .cls-2 {
        fill: #fff;
      }

      .cls-3 {
        fill: none;
        stroke: #000;
        stroke-miterlimit: 10;
        stroke-width: 3px;
      }
    </style>
  </defs>
  <g id="Layer_1">
    <g>
      <g>
        <path class="cls-2" d="M707.36,625.41c-4.1,0-8.21-.4-12.24-1.19l-205.42-40.33c-32.02-6.29-60-24.46-78.79-51.17-7.62-10.83-19.98-17.29-33.09-17.29-7,0-13.91,1.88-19.99,5.42l-45.15,26.34c-3.2,1.87-6.65,2.81-10.25,2.81-5.22,0-10.41-2.1-14.22-5.76-4.01-3.84-6.22-9.06-6.22-14.69v-143.92c0-11.27,9.17-20.44,20.44-20.44,3.6,0,7.05.95,10.25,2.81l45.12,26.32c6.08,3.55,12.99,5.42,19.99,5.42,13.11,0,25.48-6.47,33.1-17.3,18.79-26.73,46.78-44.91,78.81-51.2l156.03-30.63c10.73-2.1,21.71-3.17,32.63-3.17,39.5,0,77.97,13.91,108.33,39.16l86.7,72.1c14.57,12.11,22.92,29.92,22.92,48.86,0,18.94-8.35,36.75-22.92,48.86l-125.4,104.28c-11.39,9.47-25.82,14.69-40.64,14.69Z"/>
        <path d="M678.37,298.95c39.15,0,77.28,13.79,107.37,38.82l86.7,72.1c14.22,11.83,22.38,29.21,22.38,47.71s-8.16,35.88-22.38,47.71l-125.4,104.28c-11.12,9.25-25.21,14.35-39.68,14.35-4,0-8.02-.39-11.95-1.16l-205.42-40.33c-31.64-6.21-59.29-24.17-77.85-50.55-7.9-11.23-20.72-17.93-34.32-17.93-7.26,0-14.44,1.95-20.75,5.63l-45.15,26.34c-2.97,1.73-6.16,2.61-9.49,2.61-9.11,0-18.94-7.24-18.94-18.94v-143.93c0-11.7,9.83-18.94,18.94-18.94,3.33,0,6.52.88,9.49,2.61l45.12,26.32c6.31,3.68,13.48,5.62,20.75,5.62,13.6,0,26.43-6.71,34.33-17.94,18.57-26.41,46.22-44.38,77.87-50.59l156.03-30.63c10.63-2.09,21.51-3.14,32.34-3.14h0M678.37,295.95c-10.96,0-21.98,1.05-32.92,3.2l-156.03,30.63c-33.26,6.53-61.36,25.64-79.75,51.81-7.56,10.75-19.59,16.67-31.87,16.67-6.55,0-13.18-1.68-19.23-5.22l-45.12-26.32c-3.55-2.07-7.33-3.02-11-3.02-11.44,0-21.94,9.15-21.94,21.94v143.93c0,12.8,10.5,21.94,21.94,21.94,3.68,0,7.45-.95,11-3.02l45.15-26.34c6.06-3.53,12.68-5.22,19.23-5.22,12.28,0,24.31,5.91,31.86,16.65,18.39,26.15,46.48,45.25,79.72,51.77l205.42,40.33c4.16.82,8.36,1.22,12.53,1.22,15.07,0,29.82-5.24,41.59-15.04l125.4-104.28c31.28-26.01,31.28-74.02,0-100.03l-86.7-72.1c-30.96-25.75-69.71-39.51-109.29-39.51h0Z"/>
      </g>
      <g>
        <path class="cls-2" d="M842,499.5c-10.75,0-19.5-8.75-19.5-19.5s8.75-19.5,19.5-19.5,19.5,8.75,19.5,19.5-8.75,19.5-19.5,19.5Z"/>
        <path d="M842,462c9.93,0,18,8.07,18,18s-8.07,18-18,18-18-8.07-18-18,8.07-18,18-18M842,459c-11.6,0-21,9.4-21,21s9.4,21,21,21,21-9.4,21-21-9.4-21-21-21h0Z"/>
      </g>
      <g>
        <path class="cls-2" d="M820.7,457c-17.2,0-31.2-14-31.2-31.2s14-31.2,31.2-31.2,31.2,14,31.2,31.2-14,31.2-31.2,31.2Z"/>
        <path d="M820.7,396.1c16.38,0,29.7,13.32,29.7,29.7s-13.32,29.7-29.7,29.7-29.7-13.32-29.7-29.7,13.32-29.7,29.7-29.7M820.7,393.1c-18.06,0-32.7,14.64-32.7,32.7s14.64,32.7,32.7,32.7,32.7-14.64,32.7-32.7-14.64-32.7-32.7-32.7h0Z"/>
      </g>
      <path d="M811.54,421.98c6.43,0,6.45-10,0-10s-6.45,10,0,10h0Z"/>
      <path d="M844.9,495.37c6.43,0,6.45-10,0-10s-6.45,10,0,10h0Z"/>
      <g>
        <path class="cls-2" d="M738.5,508.5c3.97,6.32,12.6,18.15,28,27,11.92,6.85,23.08,9.14,30,10"/>
        <path d="M741.04,506.91l-2.54,1.59c3.97,6.32,12.6,18.15,28,27,11.92,6.85,23.08,9.14,30,10l.37-2.98c-10.27-1.28-19.98-4.52-28.88-9.62-13.75-7.9-22.25-18.49-26.95-25.99"/>
      </g>
      <g>
        <path class="cls-2" d="M626.08,434.24l-50.43-16.22c-5.34-1.72-11.99.11-16.48,4.54l-42.33,41.76c-4.48,4.42-5.78,10.43-3.21,14.88l24.27,42.03c2.57,4.45,8.42,6.33,14.49,4.66l57.33-15.78"/>
        <path d="M625.16,437.1l.92-2.86-50.43-16.22c-5.34-1.72-11.99.11-16.48,4.54l-42.33,41.76c-4.48,4.42-5.78,10.43-3.21,14.88l24.27,42.03c2.57,4.45,8.42,6.33,14.49,4.66l57.33-15.78-.8-2.89-57.33,15.78c-4.75,1.31-9.22,0-11.1-3.27l-24.27-42.03c-1.89-3.27-.79-7.79,2.72-11.25l42.33-41.76c3.67-3.62,9.2-5.18,13.45-3.82l50.43,16.22"/>
      </g>
      <path d="M548.11,321.47l.39-2.97c-26.17-3.41-64.66-6.52-111-3-26.2,1.99-48.12,5.59-63.54,8.12-15.03,2.47-23.87,3.92-24.46,1.88-.07-.26-.01-.56.18-.91,1.61-2.84,12.16-8.4,27.39-14.6s35.13-13.06,55.43-18.49c.53-.14,1.07-.29,1.61-.43,27.19-7.29,56.52-15.15,95.39-14.57,45.37.68,83.58,12.41,112,25l1.21-2.74c-36.54-16.18-74.62-24.68-113.17-25.26-39.3-.59-69.54,7.52-96.22,14.67l-1.61.43c-18.73,5.02-39.07,11.8-55.78,18.61-17.14,6.98-26.85,12.33-28.87,15.9-.76,1.34-.66,2.48-.45,3.21,1.32,4.61,6.94,3.68,27.83.25,15.7-2.58,37.21-6.11,63.28-8.09,36.67-2.79,73.81-1.79,110.38,2.98"/>
      <path d="M548.66,599.27l-1.16-2.77c-24.54,10.27-61.01,22.33-106,25-44.19,2.63-78.97-4.85-101.1-9.61-7.2-1.55-13.06-2.81-17.47-3.34s-7.38-.34-8.79,1.03c-1.36,2.55-.76,5.03,1,8.08,4.93,8.57,18.99,21.69,38.83,33.47,19.84,11.77,45.47,22.2,73.53,25.37,54.28,6.13,99.05-16.98,116-26,26.63-14.17,45.39-31.01,57-43l-2.16-2.09c-16.58,17.12-35.5,31.4-56.25,42.44-14.79,7.87-59.79,31.82-114.25,25.67-30.89-3.49-56.39-15.51-72.34-24.97-20.06-11.91-33.42-24.84-37.76-32.38-1.9-3.31-1.5-4.45-1.51-4.43.04-.04.95-.85,6.34-.21,4.28.52,9.98,1.74,17.2,3.29,22.82,4.91,57.31,12.32,101.91,9.67,36.11-2.15,72.11-10.63,106.98-25.23"/>
    </g>
  </g>
  <g id="Thoughts">
    <circle class="cls-3" cx="898" cy="339" r="12.5"/>
    <circle class="cls-3" cx="864" cy="364" r="12.5"/>
    <circle class="cls-3" cx="938.5" cy="255.5" r="28"/>
    <circle class="cls-3" cx="898" cy="296" r="12.5"/>
    <path class="cls-3" d="M1054.5,159.5c0,24.3-19.7,44-44,44-8.29,0-16.05-2.29-22.67-6.28-8.07,9.36-20.01,15.28-33.33,15.28-14.52,0-27.4-7.04-35.41-17.89.17-.68.33-1.36.48-2.04-.56.11-1.13.22-1.7.31.39.59.8,1.17,1.22,1.73-4.93,18.92-22.13,32.89-42.59,32.89-17.2,0-32.09-9.87-39.33-24.25-1.53.17-3.09.25-4.67.25-24.3,0-44-19.7-44-44,0-20.15,13.55-37.14,32.03-42.35-.02-.55-.03-1.1-.03-1.65,0-24.3,19.7-44,44-44,8.02,0,15.53,2.14,22,5.89,6.47-3.75,13.98-5.89,22-5.89,11.66,0,22.27,4.53,30.14,11.95,4.92-1.91,10.27-2.95,15.86-2.95,21.86,0,39.99,15.94,43.41,36.83,3.99-1.19,8.21-1.83,12.59-1.83,24.3,0,44,19.7,44,44Z"/>
    <path class="cls-3" d="M919.57,192.57c-.15.68-.31,1.36-.48,2.04-.42-.56-.83-1.14-1.22-1.73.57-.09,1.14-.2,1.7-.31Z"/>
    <path class="cls-3" d="M919.57,192.57c-.15.68-.31,1.36-.48,2.04-.42-.56-.83-1.14-1.22-1.73.57-.09,1.14-.2,1.7-.31Z"/>
    <text class="cls-1" transform="translate(832 145.25) scale(.88 1)"><tspan x="0" y="0" xml:space="preserve">  I’m smartest </tspan><tspan x="0" y="31.05">fish in the world</tspan></text>
  </g>
  <g id="Title">
    <g>
      <path d="M133.49,87.12c0-.14.02-.33.07-.58.05-.24.1-.49.17-.74.06-.25.13-.5.21-.73.07-.23.13-.42.17-.57l7.91-25.96c.06-.09.14-.17.21-.23.06-.06.15-.12.26-.17.11-.05.24-.07.4-.07h.33c.29,0,.53.05.72.15s.35.23.47.39c.12.16.2.35.24.57.05.21.07.45.07.69,0,.21-.02.43-.05.65-.03.23-.07.45-.11.66s-.08.41-.13.6c-.05.18-.08.33-.11.43l-4.06,13.87,1.86-.18c2.07-.46,4.18-.93,6.34-1.42,2.15-.49,4.27-.96,6.34-1.42.23-.12.44-.36.62-.72.18-.36.36-.84.54-1.43s.37-1.27.58-2.06c.21-.79.46-1.66.76-2.63l.41-1.35c.17-.65.32-1.32.46-2s.3-1.31.5-1.87c.2-.56.44-1.02.74-1.38.3-.36.68-.54,1.15-.54.66,0,1.18.21,1.54.63.36.42.55.95.55,1.59,0,.4-.15,1.08-.46,2.03-.31.95-.69,2.11-1.14,3.48-.17.51-.35,1.03-.55,1.56-.2.53-.37,1.04-.54,1.53-.16.49-.3.94-.4,1.35-.1.41-.16.74-.16.99,0,.23.03.47.1.69.06.23.1.47.1.73,0,.59-.16,1.07-.47,1.46s-.74.79-1.29,1.19c-.03.1-.06.27-.11.49-.05.22-.1.45-.17.68l-.25,1c-.18.72-.34,1.43-.46,2.15-.12.72-.23,1.43-.33,2.13s-.2,1.41-.31,2.11c-.11.7-.25,1.4-.42,2.09-.07.26-.18.49-.34.69-.16.2-.35.37-.57.52-.21.14-.44.25-.67.33s-.46.12-.66.12c-.31,0-.57-.07-.76-.21-.2-.14-.35-.31-.46-.51-.11-.2-.19-.4-.22-.61-.04-.21-.06-.38-.06-.53,0-.16.02-.41.07-.77.05-.36.11-.78.19-1.26.08-.48.17-1,.27-1.56.1-.56.21-1.13.31-1.7.25-1.33.53-2.78.86-4.36h-.14c-.34,0-.7.04-1.09.11-.39.07-.86.17-1.41.3-.25.08-.62.18-1.1.31-.49.13-1.04.28-1.67.45-.62.17-1.3.35-2.02.55s-1.44.39-2.16.59l-5.29,1.45c-.25.51-.48,1.06-.69,1.65-.21.59-.41,1.19-.6,1.8-.18.61-.35,1.2-.5,1.79-.15.59-.29,1.14-.42,1.66-.04.14-.12.3-.24.47-.12.17-.27.33-.43.47-.16.14-.33.26-.51.35-.18.09-.34.14-.5.14-.29,0-.52-.06-.71-.19-.19-.12-.34-.29-.46-.49-.12-.2-.2-.43-.24-.68-.05-.25-.07-.5-.07-.75Z"/>
      <path d="M162.94,80.17c0-.56.15-1.04.45-1.43.3-.39.7-.65,1.19-.78.14-.29.36-.67.66-1.16.3-.49.67-1.02,1.11-1.59.44-.57.95-1.15,1.51-1.73.57-.58,1.19-1.11,1.88-1.58.68-.48,1.42-.86,2.21-1.16.79-.3,1.62-.45,2.51-.45.75,0,1.41.09,1.97.27.56.18,1.02.44,1.39.76.36.33.64.71.82,1.16.18.45.27.93.27,1.46,0,.44-.06.87-.18,1.27-.18.73-.52,1.37-1.02,1.91-.5.55-1.08,1.03-1.75,1.44-.67.41-1.4.75-2.19,1.03-.79.27-1.58.5-2.36.68-.79.18-1.55.32-2.28.42-.73.1-1.36.17-1.89.22-.12.23-.22.53-.3.89-.08.36-.13.71-.13,1.04,0,.76.3,1.34.9,1.76.6.42,1.43.62,2.48.62.61,0,1.2-.07,1.76-.21.56-.14,1.09-.31,1.59-.53.5-.21.97-.45,1.42-.7.44-.25.85-.5,1.21-.75.47-.31.91-.58,1.34-.79.42-.21.8-.32,1.12-.32s.53.08.62.24c.09.16.14.34.14.52,0,.1,0,.21,0,.3,0,.1-.02.18-.03.24-.07.34-.2.68-.39,1.02-.2.34-.44.63-.74.88-1.35,1.07-2.74,1.83-4.17,2.29s-2.95.68-4.56.68c-.31,0-.68-.02-1.1-.06-.42-.04-.86-.12-1.32-.23-.46-.12-.91-.29-1.35-.51-.44-.22-.84-.51-1.18-.88-.35-.36-.62-.81-.84-1.35-.21-.53-.32-1.18-.32-1.93,0-.61.08-1.3.25-2.05-.17-.03-.33-.11-.48-.26-.15-.15-.22-.37-.22-.65ZM175.17,74.76c.03-.06.04-.12.04-.18v-.18c0-.35-.13-.62-.39-.79-.26-.18-.57-.26-.94-.26-.57,0-1.14.15-1.69.45-.55.3-1.07.67-1.56,1.12s-.92.93-1.3,1.45c-.38.51-.67.98-.88,1.4.94-.08,1.8-.21,2.58-.38s1.46-.4,2.04-.66c.58-.27,1.05-.57,1.41-.9.36-.33.59-.69.69-1.06Z"/>
      <path d="M183.37,85.69c.17-.91.36-1.91.59-3.01.22-1.09.45-2.2.68-3.32.23-1.12.46-2.22.68-3.3.22-1.08.41-2.07.57-2.97-.01-.13-.02-.24-.02-.34v-.32c0-.4.03-.81.08-1.21.05-.4.12-.77.21-1.11.14-.49.3-.83.48-1.01s.46-.26.85-.26.68.08.91.22c.23.15.41.35.54.6.13.25.21.53.25.85.04.32.06.65.06.99,0,.18,0,.38-.02.61-.01.22-.02.4-.02.53.36-.38.75-.76,1.16-1.16.41-.4.85-.75,1.31-1.07.46-.32.95-.58,1.46-.79.51-.21,1.05-.31,1.61-.31.22,0,.44.02.65.06s.43.09.65.16c.26.07.53.15.81.26.28.11.55.26.81.46.43.33.79.73,1.08,1.22s.44.99.44,1.49c0,.2-.04.41-.12.63-.08.23-.19.44-.32.62-.14.19-.3.35-.48.47-.18.12-.38.19-.61.19s-.49-.06-.81-.17c-.32-.11-.58-.26-.79-.44-.09-.08-.19-.19-.28-.33-.1-.14-.19-.29-.27-.43-.08-.14-.16-.28-.23-.4-.07-.12-.13-.21-.17-.24-.07-.01-.14-.02-.21-.03-.08,0-.15,0-.21,0-.66,0-1.3.17-1.89.51-.6.34-1.16.75-1.68,1.24-.52.49-1,1.01-1.44,1.56-.44.55-.82,1.05-1.14,1.49-.26,1.05-.55,2.18-.87,3.37-.32,1.19-.63,2.44-.95,3.74v.49c0,.39-.01.79-.04,1.19-.03.4-.1.76-.23,1.07-.14.2-.35.36-.62.5-.27.14-.58.21-.93.21-.55,0-.96-.18-1.23-.54s-.41-.78-.41-1.26c0-.22.03-.45.1-.68Z"/>
      <path d="M199.74,80.17c0-.56.15-1.04.45-1.43.3-.39.7-.65,1.19-.78.14-.29.36-.67.66-1.16.3-.49.67-1.02,1.11-1.59.44-.57.95-1.15,1.51-1.73.57-.58,1.19-1.11,1.88-1.58.68-.48,1.42-.86,2.21-1.16.79-.3,1.62-.45,2.51-.45.75,0,1.41.09,1.97.27.56.18,1.02.44,1.39.76.36.33.64.71.82,1.16.18.45.27.93.27,1.46,0,.44-.06.87-.18,1.27-.18.73-.52,1.37-1.02,1.91-.5.55-1.08,1.03-1.75,1.44-.67.41-1.4.75-2.19,1.03-.79.27-1.58.5-2.36.68-.79.18-1.55.32-2.28.42-.73.1-1.36.17-1.89.22-.12.23-.22.53-.3.89-.08.36-.13.71-.13,1.04,0,.76.3,1.34.9,1.76.6.42,1.43.62,2.48.62.61,0,1.2-.07,1.76-.21.56-.14,1.09-.31,1.59-.53.5-.21.97-.45,1.42-.7.44-.25.85-.5,1.21-.75.47-.31.91-.58,1.34-.79.42-.21.8-.32,1.12-.32s.53.08.62.24c.09.16.14.34.14.52,0,.1,0,.21,0,.3,0,.1-.02.18-.03.24-.07.34-.2.68-.39,1.02-.2.34-.44.63-.74.88-1.35,1.07-2.74,1.83-4.17,2.29s-2.95.68-4.56.68c-.31,0-.68-.02-1.1-.06-.42-.04-.86-.12-1.32-.23-.46-.12-.91-.29-1.35-.51-.44-.22-.84-.51-1.18-.88-.35-.36-.62-.81-.84-1.35-.21-.53-.32-1.18-.32-1.93,0-.61.08-1.3.25-2.05-.17-.03-.33-.11-.48-.26-.15-.15-.22-.37-.22-.65ZM211.97,74.76c.03-.06.04-.12.04-.18v-.18c0-.35-.13-.62-.39-.79-.26-.18-.57-.26-.94-.26-.57,0-1.14.15-1.69.45-.55.3-1.07.67-1.56,1.12s-.92.93-1.3,1.45c-.38.51-.67.98-.88,1.4.94-.08,1.8-.21,2.58-.38s1.46-.4,2.04-.66c.58-.27,1.05-.57,1.41-.9.36-.33.59-.69.69-1.06Z"/>
      <path d="M239.27,84.13c.2-.75.43-1.63.7-2.64.27-1,.56-2.06.87-3.18.31-1.12.62-2.27.93-3.44s.61-2.31.88-3.42c.01-.05.06-.14.14-.26.08-.12.19-.25.33-.37.14-.12.33-.23.55-.32.22-.09.48-.14.78-.14.22,0,.44.02.64.07.21.05.39.11.56.21.16.09.29.21.39.36.1.15.15.32.15.52v.13s0,.09-.02.13l-.55,2.07c-.61,2.32-1.23,4.64-1.87,6.97-.63,2.33-1.25,4.67-1.85,7.01-.03.08-.07.18-.12.29-.05.12-.12.23-.21.35-.09.12-.2.21-.33.29-.13.08-.29.12-.47.12-.34,0-.64-.07-.9-.21-.26-.14-.48-.31-.66-.52-.18-.21-.32-.44-.41-.68-.09-.25-.14-.48-.14-.7v-.18c0-.05.01-.11.04-.18l.57-2.29ZM244.37,63.92c.06-.27.18-.61.35-1,.17-.39.47-.74.9-1.05.21-.12.46-.22.76-.32.3-.1.51-.15.64-.15s.26.05.4.14c.14.09.26.19.36.29.13.13.25.27.37.43.33.03.54.14.63.35.1.21.15.46.15.74,0,.21-.02.4-.06.57-.04.17-.07.31-.1.41-.08.27-.23.52-.45.75-.22.23-.48.42-.76.59-.29.16-.59.29-.9.38-.31.09-.59.14-.82.14-.3,0-.53-.05-.69-.16-.16-.1-.37-.33-.62-.66-.14-.2-.22-.35-.24-.46-.02-.11-.03-.21-.03-.28,0-.14,0-.27.03-.38.02-.11.04-.22.07-.32Z"/>
      <path d="M249.9,84.25c.1,0,.2.01.28.04.08.03.18.06.28.09.1.03.22.06.35.09.13.03.3.04.51.04.61,0,1.29-.06,2.04-.2.75-.13,1.46-.3,2.12-.51.66-.21,1.23-.45,1.71-.71.48-.27.75-.54.81-.83.04-.16.06-.29.06-.41,0-.22-.11-.43-.32-.63-.21-.2-.49-.39-.81-.58-.33-.18-.68-.35-1.05-.51-.38-.16-.73-.3-1.05-.43l-.66-.27c-.34-.13-.67-.29-1-.48-.33-.19-.63-.41-.91-.65-.28-.25-.53-.54-.74-.87s-.37-.71-.48-1.14c-.05-.18-.09-.36-.13-.55-.03-.18-.05-.38-.05-.59,0-.34.11-.73.34-1.16.23-.44.53-.87.92-1.3.38-.43.82-.84,1.31-1.23s1-.72,1.53-.98c.39-.27.77-.52,1.13-.74.36-.22.73-.41,1.1-.57s.75-.28,1.13-.37c.38-.09.79-.14,1.22-.14.39,0,.81.02,1.27.06.46.04.87.13,1.25.27.38.14.69.35.95.63.25.28.38.65.38,1.12,0,.14-.02.33-.06.57s-.1.47-.2.7c-.09.23-.2.44-.33.61-.13.17-.29.25-.47.25-.3,0-.55-.06-.74-.18s-.37-.24-.53-.38-.32-.26-.49-.38c-.17-.12-.38-.18-.62-.18-.3,0-.65.06-1.04.17-.4.11-.8.26-1.22.45-.42.19-.82.41-1.22.65-.4.25-.76.5-1.07.76-.32.26-.58.52-.77.77s-.29.49-.29.69c0,.22.07.4.21.55.14.14.33.27.55.37.29.16.62.31.99.47s.75.31,1.12.47c.38.16.75.31,1.1.47.36.16.67.3.93.43.35.18.67.36.95.54.28.18.52.37.71.58.2.21.34.44.45.7.1.26.16.57.16.92,0,.17-.01.34-.04.51-.03.17-.07.36-.12.59-.04.2-.11.42-.21.68-.1.26-.2.52-.31.77-.11.25-.22.48-.34.68-.12.2-.21.34-.29.4-.51.47-1.11.91-1.8,1.32-.69.41-1.41.77-2.16,1.07-.75.31-1.5.55-2.25.73-.75.18-1.44.27-2.06.27-.31,0-.66-.06-1.04-.19-.38-.12-.73-.29-1.04-.49-.32-.2-.59-.43-.8-.69-.21-.26-.32-.52-.32-.78,0-.13.04-.28.12-.44.08-.16.18-.31.29-.45s.24-.25.38-.35.26-.15.38-.15Z"/>
      <path d="M294.99,86.87c0-.38.05-.83.14-1.36.09-.53.14-1.18.14-1.96-.43.31-.91.68-1.43,1.11-.52.43-1.06.84-1.62,1.23-.56.39-1.12.72-1.67.99-.55.27-1.07.4-1.55.4-.39,0-.76-.06-1.11-.18s-.65-.27-.9-.47c-.69-.55-1.19-1.09-1.49-1.64-.31-.55-.46-1.18-.46-1.91,0-.33.03-.66.09-1.02s.15-.75.26-1.21c.49-2.06,1.34-3.96,2.55-5.71,1.2-1.75,2.7-3.25,4.48-4.48.69-.48,1.38-.79,2.07-.93.69-.14,1.37-.21,2.05-.21.3,0,.63.02,1.01.06s.71.08,1.01.12c.3-.06.54-.11.73-.14.19-.03.39-.04.6-.04.39,0,.72.05.98.16.26.1.47.24.62.42s.27.38.34.61c.07.23.11.47.11.71,0,.34-.05.66-.16.97-.1.31-.21.62-.31.93l-2.58,10.29c-.05.56-.1,1.07-.14,1.54s-.12.91-.23,1.31l-.15.44c-.06.18-.15.35-.28.51-.13.16-.29.3-.49.42s-.45.18-.76.18c-.4,0-.73-.03-.97-.08-.24-.05-.43-.13-.56-.22-.13-.1-.21-.21-.25-.35s-.06-.3-.06-.48ZM288.51,80.97c-.05.18-.11.44-.17.78-.06.34-.09.68-.09,1.02s.05.67.16.95c.1.28.33.42.68.42.55,0,1.06-.12,1.53-.36.48-.24.92-.53,1.34-.87.56-.46,1.13-.97,1.71-1.53.58-.57,1.13-1.16,1.64-1.79.51-.62.97-1.27,1.37-1.92.4-.66.69-1.31.87-1.96.1-.38.19-.81.26-1.31.07-.49.11-.94.11-1.33,0-.17-.04-.33-.12-.5-.08-.16-.23-.24-.45-.24-.64,0-1.28.12-1.92.37-.64.25-1.27.58-1.87,1-.6.42-1.17.91-1.71,1.47-.54.57-1.03,1.17-1.47,1.82-.44.64-.82,1.31-1.14,1.99-.32.68-.56,1.35-.73,2Z"/>
      <path d="M326.93,70.25c.23-.51.5-.85.8-1.03.3-.18.64-.26,1.04-.26s.7.06.96.18c.26.12.47.27.62.47s.27.42.33.68c.06.26.1.54.1.84v.26c0,.08,0,.17-.02.26-.01.12-.05.33-.1.63-.05.31-.11.67-.19,1.08-.07.42-.15.86-.23,1.32-.08.46-.16.9-.23,1.32-.07.42-.14.78-.2,1.09s-.1.53-.13.64c-.03.13-.06.32-.1.57-.04.25-.08.53-.12.85-.04.32-.07.66-.1,1.03-.03.36-.04.73-.04,1.09s.01.69.04,1.01c.03.32.07.6.15.84.07.24.16.43.27.58.11.14.25.21.42.21.12,0,.29-.09.52-.28.23-.19.47-.41.72-.67.25-.26.5-.54.75-.83.25-.29.45-.54.61-.73.85-1.04,1.62-2.1,2.33-3.17.71-1.07,1.37-2.16,1.98-3.25.23-.43.41-.87.54-1.31.12-.44.27-.84.44-1.2.17-.36.41-.65.71-.88.31-.23.76-.34,1.38-.34.33,0,.66.11,1,.33.34.22.57.54.7.96-.04.48-.1.98-.18,1.48s-.15,1.03-.21,1.55c-.07.53-.12,1.05-.18,1.57-.05.52-.08,1.03-.08,1.52,0,.77.08,1.48.23,2.14.16.66.44,1.21.86,1.67.51-.64,1.01-1.36,1.51-2.17.5-.81.99-1.65,1.47-2.52.48-.87.94-1.75,1.38-2.65.44-.89.84-1.74,1.22-2.55.03-.06.04-.13.05-.19,0-.06,0-.12,0-.19v-.18c0-.4.11-.82.34-1.25.23-.43.5-.82.81-1.17s.63-.64.97-.86c.33-.22.61-.33.83-.33.55,0,.98.15,1.29.45.31.3.47.7.47,1.19,0,.16-.03.35-.09.59s-.15.47-.28.7l-6.58,11.6-.49.96c-.21.4-.41.79-.62,1.17-.2.38-.42.71-.66,1-.24.29-.51.51-.8.68-.29.17-.63.25-1.01.25-.51,0-.96-.14-1.36-.43-.4-.29-.74-.64-1.03-1.05-.29-.42-.52-.87-.71-1.36-.19-.49-.33-.93-.42-1.32l-.72-3.12s-.18.14-.41.41-.53.62-.88,1.05-.74.9-1.15,1.42c-.42.51-.82,1.01-1.22,1.48-.4.48-.76.91-1.09,1.29-.33.38-.59.65-.77.81-.18.16-.37.31-.58.47-.2.16-.4.29-.6.41s-.38.21-.56.29-.32.12-.44.12c-.86,0-1.57-.2-2.14-.61-.57-.4-1.02-.93-1.35-1.58-.33-.65-.56-1.38-.69-2.18-.13-.8-.2-1.6-.2-2.41,0-.72.04-1.44.11-2.17.07-.73.16-1.45.25-2.16.1-.71.2-1.4.31-2.06.11-.66.21-1.28.28-1.86.01-.1.02-.22.03-.36,0-.14,0-.28,0-.42v-.51c0-.21,0-.4,0-.58,0-.18.03-.3.07-.36Z"/>
      <path d="M353.98,80.23c.2-.79.5-1.64.91-2.53.41-.89.95-1.79,1.61-2.71.66-.91,1.46-1.8,2.39-2.68.93-.87,2.01-1.69,3.23-2.44.2-.12.49-.24.9-.38.4-.14.82-.22,1.25-.24.51-.55,1.19-.82,2.05-.82,1.02,0,1.87.26,2.57.77.7.51,1.27,1.21,1.73,2.1.14.29.28.57.4.84.12.27.23.56.31.87.08.31.15.63.21.99.05.35.08.75.08,1.19,0,1.03-.16,2.08-.49,3.14-.33,1.07-.79,2.11-1.39,3.12-.6,1.02-1.33,1.99-2.18,2.92-.85.93-1.8,1.77-2.84,2.51-.7.51-1.48.9-2.33,1.18-.85.28-1.81.42-2.86.42s-1.87-.13-2.61-.4c-.74-.27-1.35-.65-1.84-1.14-.49-.49-.85-1.09-1.09-1.78-.24-.69-.36-1.46-.36-2.3s.12-1.7.35-2.64ZM357.22,80.48c-.08.3-.13.58-.17.85-.03.27-.05.52-.05.77,0,.43.06.83.17,1.2.11.37.29.69.54.96.25.27.56.48.93.62.37.15.82.22,1.36.22.99,0,1.91-.25,2.76-.75.85-.5,1.61-1.13,2.28-1.88.66-.75,1.22-1.57,1.67-2.43.45-.87.76-1.66.95-2.39.12-.46.22-.89.3-1.29.08-.4.13-.77.13-1.11s-.06-.65-.19-.95c-.12-.29-.28-.62-.48-.99-.12-.22-.23-.45-.35-.69-.12-.24-.22-.48-.31-.71-.1.18-.21.34-.33.48s-.29.26-.53.37c-.23.11-.55.21-.96.3-.4.09-.93.17-1.58.23-.43.14-.87.36-1.31.66-.44.3-.88.65-1.3,1.05-.42.4-.83.84-1.21,1.31-.38.47-.73.95-1.04,1.44-.31.49-.57.97-.8,1.44-.23.47-.39.9-.48,1.29Z"/>
      <path d="M375.33,85.69c.17-.91.36-1.91.59-3.01.22-1.09.45-2.2.68-3.32.23-1.12.46-2.22.68-3.3.22-1.08.41-2.07.57-2.97-.01-.13-.02-.24-.02-.34v-.32c0-.4.03-.81.08-1.21.05-.4.12-.77.21-1.11.14-.49.3-.83.48-1.01s.46-.26.85-.26.68.08.91.22c.23.15.41.35.54.6.13.25.21.53.25.85.04.32.06.65.06.99,0,.18,0,.38-.02.61-.01.22-.02.4-.02.53.36-.38.75-.76,1.16-1.16.41-.4.85-.75,1.31-1.07.46-.32.95-.58,1.46-.79.51-.21,1.05-.31,1.61-.31.22,0,.44.02.65.06s.43.09.65.16c.26.07.53.15.81.26.28.11.55.26.81.46.43.33.79.73,1.08,1.22s.44.99.44,1.49c0,.2-.04.41-.12.63-.08.23-.19.44-.32.62-.14.19-.3.35-.48.47-.18.12-.38.19-.61.19s-.49-.06-.81-.17c-.32-.11-.58-.26-.79-.44-.09-.08-.19-.19-.28-.33-.1-.14-.19-.29-.27-.43-.08-.14-.16-.28-.23-.4-.07-.12-.13-.21-.17-.24-.07-.01-.14-.02-.21-.03-.08,0-.15,0-.21,0-.66,0-1.3.17-1.89.51-.6.34-1.16.75-1.68,1.24-.52.49-1,1.01-1.44,1.56-.44.55-.82,1.05-1.14,1.49-.26,1.05-.55,2.18-.87,3.37-.32,1.19-.63,2.44-.95,3.74v.49c0,.39-.01.79-.04,1.19-.03.4-.1.76-.23,1.07-.14.2-.35.36-.62.5-.27.14-.58.21-.93.21-.55,0-.96-.18-1.23-.54s-.41-.78-.41-1.26c0-.22.03-.45.1-.68Z"/>
      <path d="M400.17,78.25c-.26,0-.55.06-.88.19-.33.12-.65.27-.98.44-.33.17-.64.35-.94.53-.3.18-.56.33-.78.43l-1.78,7.03c-.07.27-.23.48-.49.62-.26.14-.5.21-.72.21-.7,0-1.18-.14-1.44-.42-.25-.28-.38-.65-.38-1.1,0-.2.02-.39.05-.6.03-.2.07-.41.13-.63l.08-.33c.08-.35.19-.79.32-1.33.14-.53.28-1.1.44-1.69.16-.59.32-1.19.48-1.8.16-.61.32-1.16.46-1.67.14-.49.35-1.23.63-2.21.28-.98.59-2.07.94-3.28.34-1.21.7-2.48,1.07-3.8.37-1.32.72-2.58,1.05-3.78.33-1.2.63-2.26.89-3.19.26-.93.44-1.62.55-2.06.12-.18.3-.33.55-.45.25-.12.54-.18.88-.18.23,0,.48.03.72.09.25.06.47.15.67.27.2.12.37.28.5.47.13.19.2.41.2.65,0,.17-.04.37-.12.61-.78,2.27-1.56,4.61-2.32,7.04-.77,2.43-1.46,4.89-2.09,7.37.17-.1.48-.32.94-.64.46-.33.96-.7,1.51-1.13.55-.43,1.11-.88,1.67-1.35.56-.47,1.03-.89,1.41-1.27.26-.26.52-.53.79-.81.27-.28.52-.55.76-.8.24-.25.45-.48.63-.68.18-.2.33-.36.43-.48.25-.29.52-.52.81-.71.29-.19.59-.28.89-.28s.55.05.78.14c.23.09.44.21.61.34.17.14.3.29.39.47.09.18.14.34.14.5,0,.2-.05.4-.14.62-.09.22-.2.44-.32.64-.12.21-.26.4-.4.58-.14.18-.27.31-.37.4-.35.31-.75.65-1.19,1.03-.44.37-.91.75-1.39,1.13-.48.38-.97.77-1.47,1.15-.5.38-.99.75-1.46,1.1.82.46,1.49,1.06,2.02,1.83s.95,1.61,1.26,2.54c.31.93.53,1.91.64,2.94.12,1.03.18,2.03.18,3.01,0,.08,0,.2-.02.36-.01.16-.04.32-.08.46-.07.23-.14.45-.23.64-.09.2-.21.36-.36.5-.15.14-.33.24-.55.32s-.48.12-.79.12-.55-.05-.76-.16c-.21-.1-.38-.24-.52-.41s-.24-.36-.3-.57c-.07-.21-.1-.42-.1-.62,0-.65-.02-1.32-.06-2.02-.04-.7-.12-1.37-.23-2.02-.12-.65-.28-1.27-.48-1.85-.2-.58-.47-1.08-.79-1.49-.23-.3-.45-.53-.65-.7-.2-.17-.45-.25-.73-.25h-.16Z"/>
      <path d="M430.97,80.23c.2-.79.5-1.64.91-2.53.41-.89.95-1.79,1.61-2.71.66-.91,1.46-1.8,2.39-2.68.93-.87,2.01-1.69,3.23-2.44.2-.12.49-.24.9-.38.4-.14.82-.22,1.25-.24.51-.55,1.19-.82,2.05-.82,1.02,0,1.87.26,2.57.77.7.51,1.27,1.21,1.73,2.1.14.29.28.57.4.84.12.27.23.56.31.87.08.31.15.63.21.99.05.35.08.75.08,1.19,0,1.03-.16,2.08-.49,3.14-.33,1.07-.79,2.11-1.39,3.12-.6,1.02-1.33,1.99-2.18,2.92-.85.93-1.8,1.77-2.84,2.51-.7.51-1.48.9-2.33,1.18-.85.28-1.81.42-2.86.42s-1.87-.13-2.61-.4c-.74-.27-1.35-.65-1.84-1.14-.49-.49-.85-1.09-1.09-1.78-.24-.69-.36-1.46-.36-2.3s.12-1.7.35-2.64ZM434.21,80.48c-.08.3-.13.58-.17.85-.03.27-.05.52-.05.77,0,.43.06.83.17,1.2.11.37.29.69.54.96.25.27.56.48.93.62.37.15.82.22,1.36.22.99,0,1.91-.25,2.76-.75.85-.5,1.61-1.13,2.28-1.88.66-.75,1.22-1.57,1.67-2.43.45-.87.76-1.66.95-2.39.12-.46.22-.89.3-1.29.08-.4.13-.77.13-1.11s-.06-.65-.19-.95c-.12-.29-.28-.62-.48-.99-.12-.22-.23-.45-.35-.69-.12-.24-.22-.48-.31-.71-.1.18-.21.34-.33.48s-.29.26-.53.37c-.23.11-.55.21-.96.3-.4.09-.93.17-1.58.23-.43.14-.87.36-1.31.66-.44.3-.88.65-1.3,1.05-.42.4-.83.84-1.21,1.31-.38.47-.73.95-1.04,1.44-.31.49-.57.97-.8,1.44-.23.47-.39.9-.48,1.29Z"/>
      <path d="M455.6,89.5c-.33,0-.62-.06-.87-.19-.25-.12-.47-.29-.64-.51s-.31-.46-.41-.73-.15-.57-.15-.88c0-.22.03-.47.08-.73.05-.27.13-.59.23-.97.04-.17.1-.42.18-.76.08-.34.16-.72.23-1.15s.16-.89.24-1.37c.08-.48.16-.95.23-1.41.07-.46.13-.88.17-1.27s.06-.72.06-.98c0-.17,0-.28-.02-.33-.03-.2-.17-.33-.42-.4-.25-.07-.53-.15-.82-.23-.29-.08-.56-.22-.8-.41-.24-.19-.36-.5-.36-.93,0-.35.08-.68.24-1,.16-.31.37-.53.63-.66.3-.14.63-.22,1.01-.23.37-.01.74-.05,1.1-.12.21-.03.35-.15.44-.37.08-.22.15-.44.21-.64.16-.6.33-1.25.51-1.94.18-.7.39-1.41.63-2.13.24-.72.51-1.43.8-2.12.29-.69.62-1.33.99-1.91.59-.79,1.21-1.54,1.88-2.23.67-.69,1.39-1.29,2.15-1.81.76-.51,1.57-.92,2.42-1.21.85-.29,1.76-.44,2.72-.44,1.16,0,2.1.2,2.83.59.73.39,1.32.98,1.78,1.76.1.18.18.37.21.56.04.19.06.38.06.58,0,.35-.05.68-.15.99-.1.31-.23.57-.4.8-.17.23-.37.41-.6.54-.23.13-.47.2-.71.2-.35,0-.62-.07-.82-.21-.2-.14-.35-.32-.48-.53-.12-.21-.22-.44-.29-.69-.07-.25-.15-.48-.23-.69-.08-.21-.2-.38-.34-.53-.14-.14-.35-.21-.61-.21s-.56.03-.89.1c-.33.07-.65.18-.95.33-.79.42-1.53.88-2.21,1.4-.68.51-1.31,1.17-1.88,1.96-.58.79-1.11,1.76-1.6,2.91-.49,1.15-.94,2.56-1.36,4.24-.01.03-.03.06-.04.1-.01.04-.02.07-.02.08,0,.03.05.04.16.04.39,0,.76-.02,1.12-.07.36-.05.71-.1,1.06-.16s.71-.11,1.06-.16c.36-.05.74-.07,1.14-.07.3,0,.58.01.84.04.26.03.48.08.67.17.19.08.34.21.45.36.11.16.17.36.17.62,0,.16-.02.35-.07.58-.05.23-.12.45-.21.66s-.22.41-.37.58c-.15.17-.34.27-.56.31-.39.08-.79.14-1.21.19-.42.05-.87.1-1.37.16-.5.06-1.04.14-1.64.25-.6.11-1.27.27-2.01.48-.23.89-.41,1.76-.54,2.63-.12.87-.23,1.73-.32,2.59-.09.86-.19,1.72-.3,2.59-.11.87-.27,1.74-.48,2.61-.04.17-.11.34-.21.51-.1.17-.21.32-.35.46s-.29.25-.47.33c-.18.08-.36.13-.56.13Z"/>
      <path d="M496.79,86.87c0-.38.05-.83.14-1.36.09-.53.14-1.18.14-1.96-.43.31-.91.68-1.43,1.11-.52.43-1.06.84-1.62,1.23-.56.39-1.12.72-1.67.99-.55.27-1.07.4-1.55.4-.39,0-.76-.06-1.11-.18s-.65-.27-.9-.47c-.69-.55-1.19-1.09-1.49-1.64-.31-.55-.46-1.18-.46-1.91,0-.33.03-.66.09-1.02s.15-.75.26-1.21c.49-2.06,1.34-3.96,2.55-5.71,1.2-1.75,2.7-3.25,4.48-4.48.69-.48,1.38-.79,2.07-.93.69-.14,1.37-.21,2.05-.21.3,0,.63.02,1.01.06s.71.08,1.01.12c.3-.06.54-.11.73-.14.19-.03.39-.04.6-.04.39,0,.72.05.98.16.26.1.47.24.62.42s.27.38.34.61c.07.23.11.47.11.71,0,.34-.05.66-.16.97-.1.31-.21.62-.31.93l-2.58,10.29c-.05.56-.1,1.07-.14,1.54s-.12.91-.23,1.31l-.15.44c-.06.18-.15.35-.28.51-.13.16-.29.3-.49.42s-.45.18-.76.18c-.4,0-.73-.03-.97-.08-.24-.05-.43-.13-.56-.22-.13-.1-.21-.21-.25-.35s-.06-.3-.06-.48ZM490.31,80.97c-.05.18-.11.44-.17.78-.06.34-.09.68-.09,1.02s.05.67.16.95c.1.28.33.42.68.42.55,0,1.06-.12,1.53-.36.48-.24.92-.53,1.34-.87.56-.46,1.13-.97,1.71-1.53.58-.57,1.13-1.16,1.64-1.79.51-.62.97-1.27,1.37-1.92.4-.66.69-1.31.87-1.96.1-.38.19-.81.26-1.31.07-.49.11-.94.11-1.33,0-.17-.04-.33-.12-.5-.08-.16-.23-.24-.45-.24-.64,0-1.28.12-1.92.37-.64.25-1.27.58-1.87,1-.6.42-1.17.91-1.71,1.47-.54.57-1.03,1.17-1.47,1.82-.44.64-.82,1.31-1.14,1.99-.32.68-.56,1.35-.73,2Z"/>
      <path d="M507.08,85.69c.17-.91.36-1.91.59-3.01.22-1.09.45-2.2.68-3.32.23-1.12.46-2.22.68-3.3.22-1.08.41-2.07.57-2.97-.01-.13-.02-.24-.02-.34v-.32c0-.4.03-.81.08-1.21.05-.4.12-.77.21-1.11.14-.49.3-.83.48-1.01s.46-.26.85-.26.68.08.91.22c.23.15.41.35.54.6.13.25.21.53.25.85.04.32.06.65.06.99,0,.18,0,.38-.02.61-.01.22-.02.4-.02.53.36-.38.75-.76,1.16-1.16.41-.4.85-.75,1.31-1.07.46-.32.95-.58,1.46-.79.51-.21,1.05-.31,1.61-.31.22,0,.44.02.65.06s.43.09.65.16c.26.07.53.15.81.26.28.11.55.26.81.46.43.33.79.73,1.08,1.22s.44.99.44,1.49c0,.2-.04.41-.12.63-.08.23-.19.44-.32.62-.14.19-.3.35-.48.47-.18.12-.38.19-.61.19s-.49-.06-.81-.17c-.32-.11-.58-.26-.79-.44-.09-.08-.19-.19-.28-.33-.1-.14-.19-.29-.27-.43-.08-.14-.16-.28-.23-.4-.07-.12-.13-.21-.17-.24-.07-.01-.14-.02-.21-.03-.08,0-.15,0-.21,0-.66,0-1.3.17-1.89.51-.6.34-1.16.75-1.68,1.24-.52.49-1,1.01-1.44,1.56-.44.55-.82,1.05-1.14,1.49-.26,1.05-.55,2.18-.87,3.37-.32,1.19-.63,2.44-.95,3.74v.49c0,.39-.01.79-.04,1.19-.03.4-.1.76-.23,1.07-.14.2-.35.36-.62.5-.27.14-.58.21-.93.21-.55,0-.96-.18-1.23-.54s-.41-.78-.41-1.26c0-.22.03-.45.1-.68Z"/>
      <path d="M526.52,81.63c0-1.09.12-2.23.37-3.41.25-1.18.51-2.31.78-3.39-.34-.01-.68-.06-1.04-.16-.35-.09-.67-.21-.96-.37-.29-.16-.52-.35-.7-.58-.18-.23-.27-.49-.27-.79,0-.12.03-.27.08-.45.05-.18.13-.36.22-.54s.22-.33.38-.45c.16-.12.33-.19.53-.19h2.62c.25,0,.42-.11.51-.32.09-.21.16-.43.21-.63.17-.75.33-1.41.48-1.96.15-.55.28-1.02.38-1.41.1-.38.19-.7.24-.94.06-.24.09-.43.09-.58,0-.17,0-.33-.02-.49-.01-.16-.02-.37-.02-.64v-.2c0-.1,0-.24.03-.41.02-.17.08-.41.19-.72.08-.25.22-.48.43-.7.21-.22.51-.33.92-.33.35,0,.65.07.9.21.25.14.45.33.61.57s.27.5.35.8c.08.3.12.6.12.9,0,.33-.03.62-.1.88l-1.43,5.47c.7-.12,1.33-.23,1.88-.33.55-.1,1.09-.21,1.64-.31.6-.12,1.12-.23,1.55-.33.44-.1.81-.19,1.12-.26.31-.07.58-.13.79-.18.21-.05.39-.07.54-.07.21,0,.42.02.63.05.21.03.4.09.57.17.16.08.3.19.4.33.1.14.16.33.16.57,0,.31-.06.59-.19.83-.12.24-.28.45-.48.62s-.42.32-.66.43c-.25.11-.5.19-.74.24-.21.04-.48.1-.81.18s-.7.16-1.09.25c-.4.09-.81.19-1.24.29-.43.1-.85.21-1.25.31-.6.16-1.11.29-1.53.39-.42.1-.78.18-1.08.23-.3.05-.54.09-.73.12-.19.03-.34.04-.46.04-.25.74-.46,1.47-.64,2.19-.18.72-.34,1.38-.46,2-.12.62-.21,1.17-.27,1.66s-.09.87-.09,1.14c0,.35.03.69.1,1.01.06.32.18.6.33.83s.37.42.63.56c.27.14.6.21,1.01.21.69,0,1.37-.19,2.03-.57.66-.38,1.3-.86,1.9-1.44.61-.58,1.18-1.21,1.72-1.9.54-.69,1.04-1.35,1.49-1.97.16-.23.36-.35.61-.35.08,0,.17.01.28.04.11.03.22.07.32.14.1.07.19.15.26.25.07.1.11.23.11.37,0,.1,0,.18-.02.23-.21.81-.53,1.62-.97,2.43-.44.81-.88,1.63-1.34,2.45-.16.29-.36.57-.62.84s-.53.54-.83.79c-.3.25-.61.5-.94.72-.33.23-.63.43-.92.62-.5.31-1.04.53-1.62.64s-1.15.18-1.7.18c-.85,0-1.6-.15-2.26-.46-.66-.31-1.21-.72-1.66-1.25s-.79-1.14-1.03-1.85-.35-1.46-.35-2.27Z"/>
      <path d="M550.29,84.54c0,.9-.35,1.68-1.04,2.33-.69.66-1.48.99-2.36.99-.68,0-1.25-.24-1.73-.71-.48-.48-.71-1.05-.71-1.73,0-.9.36-1.69,1.08-2.37s1.52-1.03,2.39-1.03c.68,0,1.24.24,1.69.72.45.48.67,1.08.67,1.8ZM556.77,60.27c0,.55-.27,1.37-.8,2.48-.4.85-1.2,2.86-2.39,6.04s-1.92,5.15-2.18,5.91c-.26.76-.5,1.68-.7,2.77-.17.85-.76,1.27-1.76,1.27-1.29,0-1.93-.64-1.93-1.91,0-1.34.8-3.92,2.39-7.72,1.59-3.81,2.82-6.42,3.68-7.83.86-1.41,1.69-2.12,2.48-2.12s1.21.37,1.21,1.11Z"/>
      <path d="M136.95,124.5c.12-.51.26-1.07.42-1.69.16-.62.34-1.26.53-1.92.19-.66.38-1.33.58-2.01.2-.68.39-1.33.58-1.95.19-.62.36-1.21.52-1.75.16-.54.29-1,.41-1.38.25-.85.48-1.7.7-2.55.22-.85.44-1.75.64-2.69.26-.51.61-.87,1.05-1.08.44-.21.92-.32,1.45-.32.42.22.75.52.99.91.24.38.36.82.36,1.3,0,.34-.06.73-.17,1.16-.11.44-.25.91-.42,1.41-.17.5-.36,1.03-.57,1.58-.21.55-.41,1.12-.61,1.71-.36,1.07-.73,2.14-1.09,3.2-.36,1.07-.72,2.19-1.07,3.38-.09.31-.19.62-.29.94-.1.31-.21.65-.32,1.02-.11.36-.23.77-.36,1.22-.13.45-.26.97-.39,1.55-.16.69-.29,1.38-.41,2.08-.12.7-.23,1.4-.33,2.1-.1.7-.22,1.41-.35,2.13-.13.72-.29,1.44-.47,2.17-.07.26-.18.49-.34.69-.16.2-.35.37-.56.52-.21.14-.43.25-.66.33s-.46.12-.66.12-.41-.02-.6-.05c-.19-.03-.34-.11-.44-.22-.16-.17-.28-.36-.37-.57-.09-.21-.14-.43-.14-.66,0-.06,0-.13,0-.19,0-.06.02-.12.03-.19l2.36-10.29Z"/>
      <path d="M148.57,129.63c0-1.09.12-2.23.37-3.41.25-1.18.51-2.31.78-3.39-.34-.01-.68-.06-1.04-.16-.35-.09-.67-.21-.96-.37-.29-.16-.52-.35-.7-.58-.18-.23-.27-.49-.27-.79,0-.12.03-.27.08-.45.05-.18.13-.36.22-.54s.22-.33.38-.45c.16-.12.33-.19.53-.19h2.62c.25,0,.42-.11.51-.32.09-.21.16-.43.21-.63.17-.75.33-1.41.48-1.96.15-.55.28-1.02.38-1.41.1-.38.19-.7.24-.94.06-.24.09-.43.09-.58,0-.17,0-.33-.02-.49-.01-.16-.02-.37-.02-.64v-.2c0-.1,0-.24.03-.41.02-.17.08-.41.19-.72.08-.25.22-.48.43-.7.21-.22.51-.33.92-.33.35,0,.65.07.9.21.25.14.45.33.61.57s.27.5.35.8c.08.3.12.6.12.9,0,.33-.03.62-.1.88l-1.43,5.47c.7-.12,1.33-.23,1.88-.33.55-.1,1.09-.21,1.64-.31.6-.12,1.12-.23,1.55-.33.44-.1.81-.19,1.12-.26.31-.07.58-.13.79-.18.21-.05.39-.07.54-.07.21,0,.42.02.63.05.21.03.4.09.57.17.16.08.3.19.4.33.1.14.16.33.16.57,0,.31-.06.59-.19.83-.12.24-.28.45-.48.62s-.42.32-.66.43c-.25.11-.5.19-.74.24-.21.04-.48.1-.81.18s-.7.16-1.09.25c-.4.09-.81.19-1.24.29-.43.1-.85.21-1.25.31-.6.16-1.11.29-1.53.39-.42.1-.78.18-1.08.23-.3.05-.54.09-.73.12-.19.03-.34.04-.46.04-.25.74-.46,1.47-.64,2.19-.18.72-.34,1.38-.46,2-.12.62-.21,1.17-.27,1.66s-.09.87-.09,1.14c0,.35.03.69.1,1.01.06.32.18.6.33.83s.37.42.63.56c.27.14.6.21,1.01.21.69,0,1.37-.19,2.03-.57.66-.38,1.3-.86,1.9-1.44.61-.58,1.18-1.21,1.72-1.9.54-.69,1.04-1.35,1.49-1.97.16-.23.36-.35.61-.35.08,0,.17.01.28.04.11.03.22.07.32.14.1.07.19.15.26.25.07.1.11.23.11.37,0,.1,0,.18-.02.23-.21.81-.53,1.62-.97,2.43-.44.81-.88,1.63-1.34,2.45-.16.29-.36.57-.62.84s-.53.54-.83.79c-.3.25-.61.5-.94.72-.33.23-.63.43-.92.62-.5.31-1.04.53-1.62.64s-1.15.18-1.7.18c-.85,0-1.6-.15-2.26-.46-.66-.31-1.21-.72-1.66-1.25s-.79-1.14-1.03-1.85-.35-1.46-.35-2.27Z"/>
      <path d="M186.38,132.13c.2-.75.43-1.63.7-2.64.27-1,.56-2.06.87-3.18.31-1.12.62-2.27.93-3.44s.61-2.31.88-3.42c.01-.05.06-.14.14-.26.08-.12.19-.25.33-.37.14-.12.33-.23.55-.32.22-.09.48-.14.78-.14.22,0,.44.02.64.07.21.05.39.11.56.21.16.09.29.21.39.36.1.15.15.32.15.52v.13s0,.09-.02.13l-.55,2.07c-.61,2.32-1.23,4.64-1.87,6.97-.63,2.33-1.25,4.67-1.85,7.01-.03.08-.07.18-.12.29-.05.12-.12.23-.21.35-.09.12-.2.21-.33.29-.13.08-.29.12-.47.12-.34,0-.64-.07-.9-.21-.26-.14-.48-.31-.66-.52-.18-.21-.32-.44-.41-.68-.09-.25-.14-.48-.14-.7v-.18c0-.05.01-.11.04-.18l.57-2.29ZM191.48,111.92c.06-.27.18-.61.35-1,.17-.39.47-.74.9-1.05.21-.12.46-.22.76-.32.3-.1.51-.15.64-.15s.26.05.4.14c.14.09.26.19.36.29.13.13.25.27.37.43.33.03.54.14.63.35.1.21.15.46.15.74,0,.21-.02.4-.06.57-.04.17-.07.31-.1.41-.08.27-.23.52-.45.75-.22.23-.48.42-.76.59-.29.16-.59.29-.9.38-.31.09-.59.14-.82.14-.3,0-.53-.05-.69-.16-.16-.1-.37-.33-.62-.66-.14-.2-.22-.35-.24-.46-.02-.11-.03-.21-.03-.28,0-.14,0-.27.03-.38.02-.11.04-.22.07-.32Z"/>
      <path d="M197,132.25c.1,0,.2.01.28.04.08.03.18.06.28.09.1.03.22.06.35.09.13.03.3.04.51.04.61,0,1.29-.06,2.04-.2.75-.13,1.46-.3,2.12-.51.66-.21,1.23-.45,1.71-.71.48-.27.75-.54.81-.83.04-.16.06-.29.06-.41,0-.22-.11-.43-.32-.63-.21-.2-.49-.39-.81-.58-.33-.18-.68-.35-1.05-.51-.38-.16-.73-.3-1.05-.43l-.66-.27c-.34-.13-.67-.29-1-.48-.33-.19-.63-.41-.91-.65-.28-.25-.53-.54-.74-.87s-.37-.71-.48-1.14c-.05-.18-.09-.36-.13-.55-.03-.18-.05-.38-.05-.59,0-.34.11-.73.34-1.16.23-.44.53-.87.92-1.3.38-.43.82-.84,1.31-1.23s1-.72,1.53-.98c.39-.27.77-.52,1.13-.74.36-.22.73-.41,1.1-.57s.75-.28,1.13-.37c.38-.09.79-.14,1.22-.14.39,0,.81.02,1.27.06.46.04.87.13,1.25.27.38.14.69.35.95.63.25.28.38.65.38,1.12,0,.14-.02.33-.06.57s-.1.47-.2.7c-.09.23-.2.44-.33.61-.13.17-.29.25-.47.25-.3,0-.55-.06-.74-.18s-.37-.24-.53-.38-.32-.26-.49-.38c-.17-.12-.38-.18-.62-.18-.3,0-.65.06-1.04.17-.4.11-.8.26-1.22.45-.42.19-.82.41-1.22.65-.4.25-.76.5-1.07.76-.32.26-.58.52-.77.77s-.29.49-.29.69c0,.22.07.4.21.55.14.14.33.27.55.37.29.16.62.31.99.47s.75.31,1.12.47c.38.16.75.31,1.1.47.36.16.67.3.93.43.35.18.67.36.95.54.28.18.52.37.71.58.2.21.34.44.45.7.1.26.16.57.16.92,0,.17-.01.34-.04.51-.03.17-.07.36-.12.59-.04.2-.11.42-.21.68-.1.26-.2.52-.31.77-.11.25-.22.48-.34.68-.12.2-.21.34-.29.4-.51.47-1.11.91-1.8,1.32-.69.41-1.41.77-2.16,1.07-.75.31-1.5.55-2.25.73-.75.18-1.44.27-2.06.27-.31,0-.66-.06-1.04-.19-.38-.12-.73-.29-1.04-.49-.32-.2-.59-.43-.8-.69-.21-.26-.32-.52-.32-.78,0-.13.04-.28.12-.44.08-.16.18-.31.29-.45s.24-.25.38-.35.26-.15.38-.15Z"/>
      <path d="M242.1,134.87c0-.38.05-.83.14-1.36.09-.53.14-1.18.14-1.96-.43.31-.91.68-1.43,1.11-.52.43-1.06.84-1.62,1.23-.56.39-1.12.72-1.67.99-.55.27-1.07.4-1.55.4-.39,0-.76-.06-1.11-.18s-.65-.27-.9-.47c-.69-.55-1.19-1.09-1.49-1.64-.31-.55-.46-1.18-.46-1.91,0-.33.03-.66.09-1.02s.15-.75.26-1.21c.49-2.06,1.34-3.96,2.55-5.71,1.2-1.75,2.7-3.25,4.48-4.48.69-.48,1.38-.79,2.07-.93.69-.14,1.37-.21,2.05-.21.3,0,.63.02,1.01.06s.71.08,1.01.12c.3-.06.54-.11.73-.14.19-.03.39-.04.6-.04.39,0,.72.05.98.16.26.1.47.24.62.42s.27.38.34.61c.07.23.11.47.11.71,0,.34-.05.66-.16.97-.1.31-.21.62-.31.93l-2.58,10.29c-.05.56-.1,1.07-.14,1.54s-.12.91-.23,1.31l-.15.44c-.06.18-.15.35-.28.51-.13.16-.29.3-.49.42s-.45.18-.76.18c-.4,0-.73-.03-.97-.08-.24-.05-.43-.13-.56-.22-.13-.1-.21-.21-.25-.35s-.06-.3-.06-.48ZM235.62,128.97c-.05.18-.11.44-.17.78-.06.34-.09.68-.09,1.02s.05.67.16.95c.1.28.33.42.68.42.55,0,1.06-.12,1.53-.36.48-.24.92-.53,1.34-.87.56-.46,1.13-.97,1.71-1.53.58-.57,1.13-1.16,1.64-1.79.51-.62.97-1.27,1.37-1.92.4-.66.69-1.31.87-1.96.1-.38.19-.81.26-1.31.07-.49.11-.94.11-1.33,0-.17-.04-.33-.12-.5-.08-.16-.23-.24-.45-.24-.64,0-1.28.12-1.92.37-.64.25-1.27.58-1.87,1-.6.42-1.17.91-1.71,1.47-.54.57-1.03,1.17-1.47,1.82-.44.64-.82,1.31-1.14,1.99-.32.68-.56,1.35-.73,2Z"/>
      <path d="M275.21,137.5c-.33,0-.62-.06-.87-.19-.25-.12-.47-.29-.64-.51s-.31-.46-.41-.73-.15-.57-.15-.88c0-.22.03-.47.08-.73.05-.27.13-.59.23-.97.04-.17.1-.42.18-.76.08-.34.16-.72.23-1.15s.16-.89.24-1.37c.08-.48.16-.95.23-1.41.07-.46.13-.88.17-1.27s.06-.72.06-.98c0-.17,0-.28-.02-.33-.03-.2-.17-.33-.42-.4-.25-.07-.53-.15-.82-.23-.29-.08-.56-.22-.8-.41-.24-.19-.36-.5-.36-.93,0-.35.08-.68.24-1,.16-.31.37-.53.63-.66.3-.14.63-.22,1.01-.23.37-.01.74-.05,1.1-.12.21-.03.35-.15.44-.37.08-.22.15-.44.21-.64.16-.6.33-1.25.51-1.94.18-.7.39-1.41.63-2.13.24-.72.51-1.43.8-2.12.29-.69.62-1.33.99-1.91.59-.79,1.21-1.54,1.88-2.23.67-.69,1.39-1.29,2.15-1.81.76-.51,1.57-.92,2.42-1.21.85-.29,1.76-.44,2.72-.44,1.16,0,2.1.2,2.83.59.73.39,1.32.98,1.78,1.76.1.18.18.37.21.56.04.19.06.38.06.58,0,.35-.05.68-.15.99-.1.31-.23.57-.4.8-.17.23-.37.41-.6.54-.23.13-.47.2-.71.2-.35,0-.62-.07-.82-.21-.2-.14-.35-.32-.48-.53-.12-.21-.22-.44-.29-.69-.07-.25-.15-.48-.23-.69-.08-.21-.2-.38-.34-.53-.14-.14-.35-.21-.61-.21s-.56.03-.89.1c-.33.07-.65.18-.95.33-.79.42-1.53.88-2.21,1.4-.68.51-1.31,1.17-1.88,1.96-.58.79-1.11,1.76-1.6,2.91-.49,1.15-.94,2.56-1.36,4.24-.01.03-.03.06-.04.1-.01.04-.02.07-.02.08,0,.03.05.04.16.04.39,0,.76-.02,1.12-.07.36-.05.71-.1,1.06-.16s.71-.11,1.06-.16c.36-.05.74-.07,1.14-.07.3,0,.58.01.84.04.26.03.48.08.67.17.19.08.34.21.45.36.11.16.17.36.17.62,0,.16-.02.35-.07.58-.05.23-.12.45-.21.66s-.22.41-.37.58c-.15.17-.34.27-.56.31-.39.08-.79.14-1.21.19-.42.05-.87.1-1.37.16-.5.06-1.04.14-1.64.25-.6.11-1.27.27-2.01.48-.23.89-.41,1.76-.54,2.63-.12.87-.23,1.73-.32,2.59-.09.86-.19,1.72-.3,2.59-.11.87-.27,1.74-.48,2.61-.04.17-.11.34-.21.51-.1.17-.21.32-.35.46s-.29.25-.47.33c-.18.08-.36.13-.56.13Z"/>
      <path d="M287.34,132.13c.2-.75.43-1.63.7-2.64.27-1,.56-2.06.87-3.18.31-1.12.62-2.27.93-3.44s.61-2.31.88-3.42c.01-.05.06-.14.14-.26.08-.12.19-.25.33-.37.14-.12.33-.23.55-.32.22-.09.48-.14.78-.14.22,0,.44.02.64.07.21.05.39.11.56.21.16.09.29.21.39.36.1.15.15.32.15.52v.13s0,.09-.02.13l-.55,2.07c-.61,2.32-1.23,4.64-1.87,6.97-.63,2.33-1.25,4.67-1.85,7.01-.03.08-.07.18-.12.29-.05.12-.12.23-.21.35-.09.12-.2.21-.33.29-.13.08-.29.12-.47.12-.34,0-.64-.07-.9-.21-.26-.14-.48-.31-.66-.52-.18-.21-.32-.44-.41-.68-.09-.25-.14-.48-.14-.7v-.18c0-.05.01-.11.04-.18l.57-2.29ZM292.43,111.92c.06-.27.18-.61.35-1,.17-.39.47-.74.9-1.05.21-.12.46-.22.76-.32.3-.1.51-.15.64-.15s.26.05.4.14c.14.09.26.19.36.29.13.13.25.27.37.43.33.03.54.14.63.35.1.21.15.46.15.74,0,.21-.02.4-.06.57-.04.17-.07.31-.1.41-.08.27-.23.52-.45.75-.22.23-.48.42-.76.59-.29.16-.59.29-.9.38-.31.09-.59.14-.82.14-.3,0-.53-.05-.69-.16-.16-.1-.37-.33-.62-.66-.14-.2-.22-.35-.24-.46-.02-.11-.03-.21-.03-.28,0-.14,0-.27.03-.38.02-.11.04-.22.07-.32Z"/>
      <path d="M297.96,132.25c.1,0,.2.01.28.04.08.03.18.06.28.09.1.03.22.06.35.09.13.03.3.04.51.04.61,0,1.29-.06,2.04-.2.75-.13,1.46-.3,2.12-.51.66-.21,1.23-.45,1.71-.71.48-.27.75-.54.81-.83.04-.16.06-.29.06-.41,0-.22-.11-.43-.32-.63-.21-.2-.49-.39-.81-.58-.33-.18-.68-.35-1.05-.51-.38-.16-.73-.3-1.05-.43l-.66-.27c-.34-.13-.67-.29-1-.48-.33-.19-.63-.41-.91-.65-.28-.25-.53-.54-.74-.87s-.37-.71-.48-1.14c-.05-.18-.09-.36-.13-.55-.03-.18-.05-.38-.05-.59,0-.34.11-.73.34-1.16.23-.44.53-.87.92-1.3.38-.43.82-.84,1.31-1.23s1-.72,1.53-.98c.39-.27.77-.52,1.13-.74.36-.22.73-.41,1.1-.57s.75-.28,1.13-.37c.38-.09.79-.14,1.22-.14.39,0,.81.02,1.27.06.46.04.87.13,1.25.27.38.14.69.35.95.63.25.28.38.65.38,1.12,0,.14-.02.33-.06.57s-.1.47-.2.7c-.09.23-.2.44-.33.61-.13.17-.29.25-.47.25-.3,0-.55-.06-.74-.18s-.37-.24-.53-.38-.32-.26-.49-.38c-.17-.12-.38-.18-.62-.18-.3,0-.65.06-1.04.17-.4.11-.8.26-1.22.45-.42.19-.82.41-1.22.65-.4.25-.76.5-1.07.76-.32.26-.58.52-.77.77s-.29.49-.29.69c0,.22.07.4.21.55.14.14.33.27.55.37.29.16.62.31.99.47s.75.31,1.12.47c.38.16.75.31,1.1.47.36.16.67.3.93.43.35.18.67.36.95.54.28.18.52.37.71.58.2.21.34.44.45.7.1.26.16.57.16.92,0,.17-.01.34-.04.51-.03.17-.07.36-.12.59-.04.2-.11.42-.21.68-.1.26-.2.52-.31.77-.11.25-.22.48-.34.68-.12.2-.21.34-.29.4-.51.47-1.11.91-1.8,1.32-.69.41-1.41.77-2.16,1.07-.75.31-1.5.55-2.25.73-.75.18-1.44.27-2.06.27-.31,0-.66-.06-1.04-.19-.38-.12-.73-.29-1.04-.49-.32-.2-.59-.43-.8-.69-.21-.26-.32-.52-.32-.78,0-.13.04-.28.12-.44.08-.16.18-.31.29-.45s.24-.25.38-.35.26-.15.38-.15Z"/>
      <path d="M327.51,136.82c-.81,0-1.36-.18-1.66-.53-.3-.35-.45-.83-.45-1.45,0-.33.03-.68.1-1.05.06-.38.15-.77.25-1.17.18-.69.39-1.38.62-2.06.23-.68.46-1.37.68-2.07.23-.7.45-1.39.66-2.09.21-.7.41-1.4.58-2.1.01-.06.02-.15.02-.25,0-.18-.05-.33-.14-.43-.09-.1-.23-.16-.41-.16-.29,0-.6.06-.93.18s-.61.25-.83.39c-.87.59-1.64,1.17-2.29,1.74-.66.57-1.26,1.17-1.81,1.8s-1.06,1.29-1.55,2c-.49.71-1,1.49-1.53,2.33-.46.85-.79,1.57-1.02,2.16-.22.59-.43,1.07-.62,1.44-.19.36-.4.63-.63.79-.23.16-.59.24-1.05.24-.52,0-.89-.15-1.1-.45-.21-.3-.32-.69-.32-1.17,0-.38.06-.8.18-1.27l6.45-25.82c.04-.16.1-.33.2-.51.09-.18.21-.35.37-.51s.34-.29.56-.39c.21-.1.46-.16.73-.16.21,0,.43,0,.66.03s.45.06.63.12c.19.06.34.15.47.28.12.13.19.3.19.51,0,.05-.01.16-.04.32-.03.16-.07.35-.12.56-.7,2.83-1.46,5.77-2.26,8.83-.8,3.06-1.61,6.15-2.43,9.28.79-.98,1.62-1.87,2.48-2.69.86-.81,1.74-1.51,2.65-2.1.9-.59,1.84-1.04,2.81-1.38.97-.33,1.98-.5,3.02-.5.66,0,1.18.21,1.54.63.36.42.55.96.55,1.61,0,.3-.04.59-.12.88-.16.6-.33,1.19-.53,1.77-.2.58-.4,1.16-.61,1.75-.21.59-.42,1.18-.62,1.79-.21.61-.39,1.23-.55,1.87-.21.82-.35,1.6-.43,2.33-.08.74-.13,1.33-.16,1.77-.03.38-.08.74-.18,1.09-.09.35-.22.66-.4.93s-.4.48-.66.64c-.27.16-.58.24-.95.24Z"/>
      <path d="M341.48,132.54c0,.9-.35,1.68-1.04,2.33-.69.66-1.48.99-2.36.99-.68,0-1.25-.24-1.73-.71-.48-.48-.71-1.05-.71-1.73,0-.9.36-1.69,1.08-2.37s1.52-1.03,2.39-1.03c.68,0,1.24.24,1.69.72.45.48.67,1.08.67,1.8ZM347.96,108.27c0,.55-.27,1.37-.8,2.48-.4.85-1.2,2.86-2.39,6.04s-1.92,5.15-2.18,5.91c-.26.76-.5,1.68-.7,2.77-.17.85-.76,1.27-1.76,1.27-1.29,0-1.93-.64-1.93-1.91,0-1.34.8-3.92,2.39-7.72,1.59-3.81,2.82-6.42,3.68-7.83.86-1.41,1.69-2.12,2.48-2.12s1.21.37,1.21,1.11Z"/>
    </g>
  </g>
</svg>